<svg id="Bold" enable-background="new 0 0 24 24" height="512" viewBox="0 0 24 24" width="512" xmlns="http://www.w3.org/2000/svg"><g><path d="m12.67 8.53c-.22-.02-.45-.03-.67-.03-.14 0-.27 0-.41.01-1.69.08-3.26.66-4.55 1.59l-4.95-8.99c-.12-.23-.12-.51.01-.74.14-.23.38-.37.65-.37h4.5c.27 0 .51.14.65.37l4.21 7.2z"/></g><g><path d="m21.91 1.11-4.95 8.99c-.7-.51-1.48-.91-2.32-1.18l-1.68-2.88 3.13-5.65c.14-.24.39-.39.66-.39h4.5c.27 0 .51.14.65.37.13.23.13.51.01.74z"/></g><g><path d="m12 10c-3.86 0-7 3.14-7 7s3.14 7 7 7 7-3.14 7-7-3.14-7-7-7zm0 11c-2.206 0-4-1.794-4-4s1.794-4 4-4 4 1.794 4 4-1.794 4-4 4z"/></g></svg>