<svg id="Grupo_65" data-name="Grupo 65" xmlns="http://www.w3.org/2000/svg" xmlns:xlink="http://www.w3.org/1999/xlink" width="132.396" height="132.396" viewBox="0 0 132.396 132.396">
  <defs>
    <linearGradient id="linear-gradient" x1="0.5" y1="1" x2="0.5" gradientUnits="objectBoundingBox">
      <stop offset="0" stop-color="gray" stop-opacity="0.251"/>
      <stop offset="0.54" stop-color="gray" stop-opacity="0.122"/>
      <stop offset="1" stop-color="gray" stop-opacity="0.102"/>
    </linearGradient>
  </defs>
  <g id="Grupo_59" data-name="Grupo 59" opacity="0.5">
    <circle id="Elipse_158" data-name="Elipse 158" cx="66.198" cy="66.198" r="66.198" transform="translate(0 0)" fill="url(#linear-gradient)"/>
  </g>
  <circle id="Elipse_159" data-name="Elipse 159" cx="64.798" cy="64.798" r="64.798" transform="translate(1.399 1.04)" fill="#f5f5f5"/>
  <path id="Caminho_399" data-name="Caminho 399" d="M336.545,681.6c0,23.865-15.571,50.432-34.781,50.432S267,705.462,267,681.6s15.571-35.986,34.781-35.986S336.545,657.737,336.545,681.6Z" transform="translate(-234.503 -609.932)" fill="#fdd835"/>
  <path id="Caminho_400" data-name="Caminho 400" d="M298.389,793.844a64.5,64.5,0,0,0,35.621-10.659c-2.388-13.047-11.476-13.795-11.476-13.795h-50.1s-8.568.7-11.253,12.709A64.5,64.5,0,0,0,298.389,793.844Z" transform="translate(-232.008 -663.007)" fill="#6c63ff"/>
  <path id="Caminho_401" data-name="Caminho 401" d="M98.18,669.74h20.044v16.034A10.019,10.019,0,0,1,108.2,695.793h0a10.019,10.019,0,0,1-10.019-10.019V669.74Z" transform="translate(-42.572 -579.277)" opacity="0.1"/>
  <path id="Caminho_402" data-name="Caminho 402" d="M100.1,668.44h16.217a1.914,1.914,0,0,1,1.914,1.914v14.12a10.019,10.019,0,0,1-10.019,10.019h0A10.019,10.019,0,0,1,98.19,684.474v-14.12A1.914,1.914,0,0,1,100.1,668.44Z" transform="translate(-42.576 -578.72)" fill="#fdb797"/>
  <path id="Caminho_403" data-name="Caminho 403" d="M307.53,752.965a28.846,28.846,0,0,0,20.044.057V750.56H307.53Z" transform="translate(-251.882 -654.933)" opacity="0.1"/>
  <circle id="Elipse_160" data-name="Elipse 160" cx="28.726" cy="28.726" r="28.726" transform="translate(36.975 41.921)" fill="#fdb797"/>
  <ellipse id="Elipse_161" data-name="Elipse 161" cx="2.673" cy="5.01" rx="2.673" ry="5.01" transform="translate(34.896 64.41)" fill="#fdb797"/>
  <ellipse id="Elipse_162" data-name="Elipse 162" cx="2.673" cy="5.01" rx="2.673" ry="5.01" transform="translate(91.012 64.41)" fill="#fdb797"/>
  <path id="Caminho_404" data-name="Caminho 404" d="M280.57,667.451s16.24,22.226,53.483,14.635c0,0,4.158-5.061-5.963-20.6S289.784,648.481,280.57,667.451Z" transform="translate(-240.322 -612.386)" opacity="0.1"/>
  <path id="Caminho_405" data-name="Caminho 405" d="M280.57,666.821s16.24,22.226,53.483,14.635c0,0,4.158-5.061-5.963-20.6S289.784,647.851,280.57,666.821Z" transform="translate(-240.322 -612.116)" fill="#fdd835"/>
</svg>
